inDegrees=no
num_controls=7
num_derivatives=13
num_iterations=114
num_multipliers=7
num_parameters=0
num_slacks=7
num_states=26
objective=0.516858
objective_accelerations=0.040160
objective_balance=0.002232
objective_effort=0.044165
objective_height=0.418680
objective_ligament=0.011620
solver_duration=1505.905611
status=Solve_Succeeded
success=true
DataType=double
version=3
OpenSimVersion=4.5
endheader
time	/jointset/ground_pelvis/pelvis_tilt/value	/jointset/ground_pelvis/pelvis_tx/value	/jointset/ground_pelvis/pelvis_ty/value	/jointset/hip_l/hip_flexion_l/value	/jointset/hip_l/hip_adduction_l/value	/jointset/hip_l/hip_rotation_l/value	/jointset/back/lumbar_extension/value	/jointset/patellofemoral_l/patellar_flexion_l/value	/jointset/knee_l/knee_flexion_l/value	/jointset/knee_l/knee_adduction_l/value	/jointset/knee_l/knee_rotation_l/value	/jointset/ankle_l/ankle_angle_l/value	/jointset/subtalar_l/subtalar_angle_l/value	/jointset/ground_pelvis/pelvis_tilt/speed	/jointset/ground_pelvis/pelvis_tx/speed	/jointset/ground_pelvis/pelvis_ty/speed	/jointset/hip_l/hip_flexion_l/speed	/jointset/hip_l/hip_adduction_l/speed	/jointset/hip_l/hip_rotation_l/speed	/jointset/back/lumbar_extension/speed	/jointset/patellofemoral_l/patellar_flexion_l/speed	/jointset/knee_l/knee_flexion_l/speed	/jointset/knee_l/knee_adduction_l/speed	/jointset/knee_l/knee_rotation_l/speed	/jointset/ankle_l/ankle_angle_l/speed	/jointset/subtalar_l/subtalar_angle_l/speed	/forceset/tau_hip_flexion_l	/forceset/tau_hip_adduction_l	/forceset/tau_hip_rotation_l	/forceset/tau_knee_flexion_l	/forceset/tau_ankle_angle_l	/forceset/tau_subtalar_angle_l	/forceset/tau_lumbar_extension	lambda_cid13_p0	lambda_cid13_p1	lambda_cid13_p2	lambda_cid13_p3	lambda_cid13_p4	lambda_cid13_p5	lambda_cid14_p0	/jointset/ground_pelvis/pelvis_tilt/accel	/jointset/ground_pelvis/pelvis_tx/accel	/jointset/ground_pelvis/pelvis_ty/accel	/jointset/hip_l/hip_flexion_l/accel	/jointset/hip_l/hip_adduction_l/accel	/jointset/hip_l/hip_rotation_l/accel	/jointset/back/lumbar_extension/accel	/jointset/patellofemoral_l/patellar_flexion_l/accel	/jointset/knee_l/knee_flexion_l/accel	/jointset/knee_l/knee_adduction_l/accel	/jointset/knee_l/knee_rotation_l/accel	/jointset/ankle_l/ankle_angle_l/accel	/jointset/subtalar_l/subtalar_angle_l/accel	gamma_cid13_p0	gamma_cid13_p1	gamma_cid13_p2	gamma_cid13_p3	gamma_cid13_p4	gamma_cid13_p5	gamma_cid14_p0
0.5	-0.1221434229488094	-0.05759493941320479	0.8235197154417729	0.8966502982162943	-0.3237744298497764	-0.1225461076687057	-0.7793644575541767	0.7890406060300231	0.7890406060300642	-0.1089112988084642	-0.1744453556355208	0.06862952621876336	-0.00781803035280673	-0.2108995247244874	-0.2092337138120693	-0.3427963066951334	1.506563980773179	-0.04058919100293275	0.458162344186066	-0.8406508388283026	1.437973658482702	1.437973658482798	0.1315831491310575	0.0005197930304960694	0.2333700565854551	0.02945730448048148	-0.2829743666182507	0.02803335173532728	-0.003441818444790425	-0.2113422285733389	0.120456061632158	0.04200083487558032	0.3305746232272855	-6.121617909671707	-18.47880898205143	3.987709561602493	-9.895272285353874	-703.2443128079839	-70.0482205144401	-14.87305661752104	0.288920272133621	0.6590702799991682	-0.1173787203410624	-1.439492021192732	0.2220063175986909	-0.3397890367764683	1.704615113847497	-1.094083574269903	-1.094083574269914	-0.2887401665877908	0.02315307355768783	0.008761153828786379	0.2458189357531131	-5.961155329285456e-08	-4.749443137664979e-07	9.760024212230385e-08	-4.990026246257328e-08	-8.712149162274835e-08	-4.678896368520617e-08	-8.206052920959014e-08
0.51	-0.1242377063406095	-0.05965420734150811	0.82008664085899	0.9116417118001989	-0.3241696367618286	-0.1179826469264439	-0.7876847857884313	0.8033633204241604	0.8033633204241246	-0.1076104456043884	-0.1744398958637949	0.07096295824384841	-0.007511819132248517	-0.2079278140655194	-0.2026092074498435	-0.3437405049987181	1.491504028553826	-0.03845259941955725	0.4544570838332556	-0.8233222273911226	1.426348859686189	1.426348859686229	0.1285892740203901	0.0005614663265744275	0.2332667564624005	0.03177061648545088	-0.2894930494865983	0.02841079991059238	-0.003657131461117559	-0.2138726839637984	0.120774309262399	0.04239817116682124	0.3368361489458275	-6.246518401057695	-18.57646487491419	3.942696280078319	-9.931869851574218	-707.2474104519426	-69.92737730464519	-14.3463108395253	0.3056918517110053	0.665732593006455	-0.07124249488979356	-1.571459404475521	0.2094592637480529	-0.3968779940371108	1.7608712534923	-1.22971543465601	-1.229715434664452	-0.3045164207227435	-0.006889899268359407	-0.02732964413776616	0.2219895006987083	-8.054027622731232e-08	-3.585921116007918e-07	2.754277740252254e-07	-1.724324882426423e-08	-9.951574095152927e-08	-3.490549271890721e-08	-8.950984516604632e-08
0.52	-0.1263013935480403	-0.06164691185045484	0.8166464638712667	0.9264760833454693	-0.3245434830210434	-0.1134584354796157	-0.7958290504893469	0.81756317934986	0.8175631793497681	-0.10633949219887	-0.1744343322305071	0.07329386645794871	-0.007182894358074741	-0.2047802878492258	-0.1959210299407511	-0.3442167876832062	1.475155573047725	-0.0363170604345255	0.4503124851002884	-0.8054381321603709	1.413402564797115	1.413402564797098	0.1256031894130549	0.0005405653466043618	0.2328652943887368	0.03400001520361346	-0.29601173235496	0.02878824808582834	-0.003872444477252798	-0.2164031393542712	0.1210925568926312	0.04279550745802864	0.3430976746643649	-6.374654175984092	-18.67448067624083	3.898798630053369	-9.995097617202729	-711.3227586123376	-69.83135977340737	-13.81658698452872	0.3240833835988891	0.6718045093723755	-0.02379559652175899	-1.69719267854201	0.2217957979299602	-0.4276567128078197	1.815711872561896	-1.358382792782128	-1.358382792782127	-0.2871820659213445	0.01063821834798981	-0.05087123629316558	0.2290362783917069	-1.104177399617782e-07	-2.144887274998806e-07	5.206149804451145e-07	2.753111228200754e-08	-1.203691324201467e-07	-1.80618475834364e-08	-1.016899063626045e-07
0.53	-0.1283327461748919	-0.06357248694822949	0.8132038768966434	0.941140598717602	-0.3248961278151097	-0.1089767341314991	-0.8037918266184815	0.831626982386835	0.8316269823867869	-0.1050992860496766	-0.1744285775200298	0.07561921807942026	-0.006832292806200109	-0.2014630559140215	-0.1891904857646384	-0.3442206461839329	1.457540272272966	-0.03421506396075765	0.4459547612080406	-0.7870373340068738	1.399141059561115	1.399141059561088	0.1224392398217795	0.0005974597519996371	0.2321529341482169	0.03610195657479838	-0.3023760772104253	0.02924147888864785	-0.004076210073466101	-0.2188735738930458	0.1212078805273868	0.04299942540304805	0.3491666925972522	-6.572659131250146	-18.67372927884388	3.836262301807537	-9.910814594958737	-715.3130849834316	-69.5697864936912	-13.2846105387795	0.3396069542878978	0.6742151586933458	0.02328691723575399	-1.824799921087891	0.2038557183287471	-0.4508852649877482	1.864227735797247	-1.492560226965607	-1.492560226967198	-0.3308265817574947	0.001408046250882183	-0.08923498176168804	0.1979686347070901	-1.237357731726955e-07	-1.190915327929984e-07	6.503557360619036e-07	5.290875716401792e-08	-1.268149054678385e-07	-3.053423623897e-09	-1.054870634231163e-07
0.54	-0.1303301137112358	-0.06543064944685059	0.8097636449158299	0.9556227408531532	-0.3252278618151958	-0.1045408210298174	-0.8115682019762707	0.8455416652038588	0.8455416652038563	-0.1038906844315972	-0.1744226152665729	0.07793588278571985	-0.006461232726968694	-0.1979832697465334	-0.1824385101100436	-0.3437457889212976	1.438680925732412	-0.03213490163784	0.441154835813612	-0.7681579778912215	1.383578520806846	1.383578520806808	0.119282283189427	0.0005820739420190988	0.2311279113544844	0.03809172067499123	-0.3087404220658962	0.02969470969145148	-0.004279975669673387	-0.2213440084318233	0.1213232041621373	0.04320334334804831	0.3552357105301385	-6.77447048365662	-18.67310479652878	3.774652957074712	-9.855741175504265	-719.3858373704549	-69.34580377140021	-12.75125563094355	0.3565942300557853	0.6760908050686886	0.07194755615063088	-1.946001831700722	0.2174289677599286	-0.5160970132439606	1.911423464993028	-1.6185894964361	-1.618589496436101	-0.2857834741367569	-0.003817824727177847	-0.1134037469357709	0.2066008241932551	-1.187327343150057e-07	-7.758203699014885e-08	6.523685035561123e-07	5.682620537237717e-08	-1.173203347306761e-07	9.924542864399114e-09	-1.000095180352362e-07
0.55	-0.1322919194498804	-0.06722123348176348	0.8063305624103817	0.9699102003603711	-0.3255389026582347	-0.1001547689792233	-0.819153487770067	0.8592943119973105	0.8592943119972719	-0.1027137700532307	-0.1744169149727973	0.08024077585044649	-0.006070829589146446	-0.1943530239952213	-0.1756792278634324	-0.3427893157287381	1.418608868398563	-0.03008186852114831	0.4360015119167329	-0.7488318440886148	1.366738628575894	1.366738628575893	0.116084910945343	0.0005552457030909559	0.229799876679627	0.03996460295119044	-0.3148513361305473	0.02988419317024539	-0.004457104669913861	-0.2238886534767356	0.121401626660301	0.04344482480003475	0.3610527945209475	-6.98185217474189	-18.68820759553213	3.715994538845455	-9.737813442954211	-723.3396016445046	-69.19926856228899	-12.2174912005393	0.3699549069666024	0.6757190781844864	0.1196842383996107	-2.068139907011221	0.197867555091287	-0.5231498224371146	1.953308854906338	-1.748501078085861	-1.74850107808027	-0.3390582374562841	-0.002396099801402479	-0.1501256932766981	0.1739187578152875	-1.11603401754045e-07	-4.310469146801459e-08	6.400178804813951e-07	5.787743115293295e-08	-1.05596804359749e-07	2.151554963421952e-08	-9.361394092227973e-08
0.5600000000000001	-0.1342166796991573	-0.06894425026546493	0.8029094820443773	0.9839908728496892	-0.3258296877558156	-0.09582189011650774	-0.8265434921224354	0.8728721974701158	0.8728721974700527	-0.1015692982248678	-0.1744115391166841	0.08253086409532054	-0.005662440262865899	-0.1905741718719866	-0.1689250598677542	-0.341345361032529	1.397323522153351	-0.02808375254574765	0.4305201982387616	-0.7291016896055258	1.348626256678499	1.348626256678535	0.1127937731847727	0.0005171864111339315	0.2281669473841295	0.0416889583666706	-0.3209622501952057	0.03007367664901908	-0.004634233670036863	-0.2264332985216546	0.1214800491584582	0.04368630625199569	0.3668698785117548	-7.193783097911369	-18.70354350313655	3.658549894116343	-9.646638018927755	-727.3852123032881	-69.09022586905155	-11.68439778580669	0.3863155044403914	0.6750679548820013	0.1694438568805138	-2.188659613973114	0.2064455395017401	-0.5816949694623789	1.99222760108954	-1.873085429724604	-1.873085429724606	-0.3045365774339857	-0.006064035332955333	-0.1743826710639118	0.1768954520494117	-1.019225167491592e-07	-1.706592628273836e-08	6.104311887239674e-07	5.54891900201247e-08	-9.119852242830439e-08	3.144220474186912e-08	-8.611672573923171e-08
